<mxfile host="app.diagrams.net" modified="2022-11-26T22:12:28.187Z" agent="5.0 (Windows NT 10.0; Win64; x64) AppleWebKit/537.36 (KHTML, like Gecko) Chrome/107.0.0.0 Safari/537.36 Edg/107.0.1418.56" etag="lURpYaIAqcuYmdcIOe7P" version="20.6.0" type="github">
  <diagram id="Mvv-CkHV8eBTjIygVmUQ" name="PÃ¡gina-1">
    <mxGraphModel dx="1375" dy="786" grid="1" gridSize="10" guides="1" tooltips="1" connect="1" arrows="1" fold="1" page="1" pageScale="1" pageWidth="1654" pageHeight="1169" math="0" shadow="0">
      <root>
        <mxCell id="0" />
        <mxCell id="1" parent="0" />
        <mxCell id="gCqEEP28M4WdG7ceTI0u-105" value="" style="rounded=0;whiteSpace=wrap;html=1;" vertex="1" parent="1">
          <mxGeometry x="1160" y="595" width="150" height="905" as="geometry" />
        </mxCell>
        <mxCell id="gCqEEP28M4WdG7ceTI0u-104" value="" style="rounded=0;whiteSpace=wrap;html=1;" vertex="1" parent="1">
          <mxGeometry x="1040" y="595" width="120" height="905" as="geometry" />
        </mxCell>
        <mxCell id="gCqEEP28M4WdG7ceTI0u-46" value="" style="rounded=0;whiteSpace=wrap;html=1;" vertex="1" parent="1">
          <mxGeometry x="1310" y="595" width="130" height="905" as="geometry" />
        </mxCell>
        <mxCell id="gCqEEP28M4WdG7ceTI0u-43" value="" style="rounded=0;whiteSpace=wrap;html=1;" vertex="1" parent="1">
          <mxGeometry x="920" y="595" width="120" height="905" as="geometry" />
        </mxCell>
        <mxCell id="_zywTkkiE6WR-aAjTpFu-1" value="" style="rounded=0;whiteSpace=wrap;html=1;" parent="1" vertex="1">
          <mxGeometry x="355" y="135" width="190" height="310" as="geometry" />
        </mxCell>
        <mxCell id="_zywTkkiE6WR-aAjTpFu-2" value="Gestionar ordenes" style="ellipse;whiteSpace=wrap;html=1;" parent="1" vertex="1">
          <mxGeometry x="390" y="160" width="120" height="50" as="geometry" />
        </mxCell>
        <mxCell id="_zywTkkiE6WR-aAjTpFu-3" value="&lt;font style=&quot;font-size: 17px;&quot;&gt;Diagramas de casos de usos&lt;/font&gt;" style="text;html=1;align=center;verticalAlign=middle;resizable=0;points=[];autosize=1;strokeColor=none;fillColor=none;fontStyle=1" parent="1" vertex="1">
          <mxGeometry x="315" y="50" width="260" height="30" as="geometry" />
        </mxCell>
        <mxCell id="_zywTkkiE6WR-aAjTpFu-4" value="&lt;b&gt;Nivel 0&lt;br&gt;Nivel contexto&lt;/b&gt;" style="text;html=1;align=center;verticalAlign=middle;resizable=0;points=[];autosize=1;strokeColor=none;fillColor=none;fontSize=17;" parent="1" vertex="1">
          <mxGeometry x="375" y="85" width="140" height="50" as="geometry" />
        </mxCell>
        <mxCell id="_zywTkkiE6WR-aAjTpFu-5" value="Cocinero" style="shape=umlActor;verticalLabelPosition=bottom;verticalAlign=top;html=1;outlineConnect=0;fontSize=17;" parent="1" vertex="1">
          <mxGeometry x="690" y="300" width="30" height="60" as="geometry" />
        </mxCell>
        <mxCell id="_zywTkkiE6WR-aAjTpFu-6" value="" style="endArrow=none;html=1;rounded=0;fontSize=17;entryX=1;entryY=0.5;entryDx=0;entryDy=0;exitX=0.5;exitY=0.5;exitDx=0;exitDy=0;exitPerimeter=0;" parent="1" source="_zywTkkiE6WR-aAjTpFu-5" target="_zywTkkiE6WR-aAjTpFu-2" edge="1">
          <mxGeometry width="50" height="50" relative="1" as="geometry">
            <mxPoint x="390" y="410" as="sourcePoint" />
            <mxPoint x="505" y="245" as="targetPoint" />
          </mxGeometry>
        </mxCell>
        <mxCell id="_zywTkkiE6WR-aAjTpFu-7" value="Administrador" style="shape=umlActor;verticalLabelPosition=bottom;verticalAlign=top;html=1;outlineConnect=0;fontSize=17;" parent="1" vertex="1">
          <mxGeometry x="170" y="270" width="30" height="60" as="geometry" />
        </mxCell>
        <mxCell id="_zywTkkiE6WR-aAjTpFu-8" value="" style="endArrow=none;html=1;rounded=0;fontSize=17;entryX=0.5;entryY=0.5;entryDx=0;entryDy=0;entryPerimeter=0;exitX=0;exitY=0.5;exitDx=0;exitDy=0;" parent="1" source="_zywTkkiE6WR-aAjTpFu-2" target="_zywTkkiE6WR-aAjTpFu-7" edge="1">
          <mxGeometry width="50" height="50" relative="1" as="geometry">
            <mxPoint x="390" y="410" as="sourcePoint" />
            <mxPoint x="440" y="360" as="targetPoint" />
          </mxGeometry>
        </mxCell>
        <mxCell id="_zywTkkiE6WR-aAjTpFu-9" value="Gestionar inventarios" style="ellipse;whiteSpace=wrap;html=1;" parent="1" vertex="1">
          <mxGeometry x="390" y="320" width="120" height="50" as="geometry" />
        </mxCell>
        <mxCell id="_zywTkkiE6WR-aAjTpFu-10" value="" style="endArrow=none;html=1;rounded=0;fontSize=17;entryX=0.5;entryY=0.5;entryDx=0;entryDy=0;entryPerimeter=0;exitX=1;exitY=0.5;exitDx=0;exitDy=0;" parent="1" source="_zywTkkiE6WR-aAjTpFu-9" target="_zywTkkiE6WR-aAjTpFu-5" edge="1">
          <mxGeometry width="50" height="50" relative="1" as="geometry">
            <mxPoint x="390" y="400" as="sourcePoint" />
            <mxPoint x="440" y="350" as="targetPoint" />
          </mxGeometry>
        </mxCell>
        <mxCell id="_zywTkkiE6WR-aAjTpFu-11" value="&lt;b&gt;Nivel 1&lt;br&gt;Gestionar ordenes&lt;/b&gt;" style="text;html=1;align=center;verticalAlign=middle;resizable=0;points=[];autosize=1;strokeColor=none;fillColor=none;fontSize=17;" parent="1" vertex="1">
          <mxGeometry x="360" y="470" width="170" height="50" as="geometry" />
        </mxCell>
        <mxCell id="_zywTkkiE6WR-aAjTpFu-12" value="Crear una orden" style="ellipse;whiteSpace=wrap;html=1;" parent="1" vertex="1">
          <mxGeometry x="390" y="560" width="120" height="50" as="geometry" />
        </mxCell>
        <mxCell id="_zywTkkiE6WR-aAjTpFu-13" value="Editar una orden" style="ellipse;whiteSpace=wrap;html=1;" parent="1" vertex="1">
          <mxGeometry x="385" y="620" width="120" height="50" as="geometry" />
        </mxCell>
        <mxCell id="_zywTkkiE6WR-aAjTpFu-14" value="Cambiar el estado de una orden" style="ellipse;whiteSpace=wrap;html=1;" parent="1" vertex="1">
          <mxGeometry x="390" y="680" width="120" height="50" as="geometry" />
        </mxCell>
        <mxCell id="_zywTkkiE6WR-aAjTpFu-15" value="Eliminar una orden" style="ellipse;whiteSpace=wrap;html=1;" parent="1" vertex="1">
          <mxGeometry x="390" y="750" width="120" height="50" as="geometry" />
        </mxCell>
        <mxCell id="_zywTkkiE6WR-aAjTpFu-16" value="Administrador" style="shape=umlActor;verticalLabelPosition=bottom;verticalAlign=top;html=1;outlineConnect=0;fontSize=17;" parent="1" vertex="1">
          <mxGeometry x="140" y="630" width="30" height="60" as="geometry" />
        </mxCell>
        <mxCell id="_zywTkkiE6WR-aAjTpFu-17" value="Revisar una orden" style="ellipse;whiteSpace=wrap;html=1;" parent="1" vertex="1">
          <mxGeometry x="570" y="680" width="120" height="50" as="geometry" />
        </mxCell>
        <mxCell id="_zywTkkiE6WR-aAjTpFu-18" value="" style="endArrow=none;html=1;rounded=0;fontSize=17;entryX=0.5;entryY=0.5;entryDx=0;entryDy=0;entryPerimeter=0;exitX=0;exitY=0.5;exitDx=0;exitDy=0;" parent="1" source="_zywTkkiE6WR-aAjTpFu-13" target="_zywTkkiE6WR-aAjTpFu-16" edge="1">
          <mxGeometry width="50" height="50" relative="1" as="geometry">
            <mxPoint x="530" y="740" as="sourcePoint" />
            <mxPoint x="580" y="690" as="targetPoint" />
          </mxGeometry>
        </mxCell>
        <mxCell id="_zywTkkiE6WR-aAjTpFu-19" value="" style="endArrow=none;html=1;rounded=0;fontSize=17;entryX=0.5;entryY=0.5;entryDx=0;entryDy=0;entryPerimeter=0;exitX=0;exitY=0.5;exitDx=0;exitDy=0;" parent="1" source="_zywTkkiE6WR-aAjTpFu-12" target="_zywTkkiE6WR-aAjTpFu-16" edge="1">
          <mxGeometry width="50" height="50" relative="1" as="geometry">
            <mxPoint x="390" y="630" as="sourcePoint" />
            <mxPoint x="440" y="580" as="targetPoint" />
          </mxGeometry>
        </mxCell>
        <mxCell id="_zywTkkiE6WR-aAjTpFu-20" value="" style="endArrow=none;html=1;rounded=0;fontSize=17;exitX=0.5;exitY=0.5;exitDx=0;exitDy=0;exitPerimeter=0;entryX=0;entryY=0.5;entryDx=0;entryDy=0;" parent="1" source="_zywTkkiE6WR-aAjTpFu-16" target="_zywTkkiE6WR-aAjTpFu-14" edge="1">
          <mxGeometry width="50" height="50" relative="1" as="geometry">
            <mxPoint x="390" y="630" as="sourcePoint" />
            <mxPoint x="440" y="580" as="targetPoint" />
          </mxGeometry>
        </mxCell>
        <mxCell id="_zywTkkiE6WR-aAjTpFu-21" value="" style="endArrow=none;html=1;rounded=0;fontSize=17;exitX=0;exitY=0.5;exitDx=0;exitDy=0;entryX=0.5;entryY=0.5;entryDx=0;entryDy=0;entryPerimeter=0;" parent="1" source="_zywTkkiE6WR-aAjTpFu-15" target="_zywTkkiE6WR-aAjTpFu-16" edge="1">
          <mxGeometry width="50" height="50" relative="1" as="geometry">
            <mxPoint x="390" y="630" as="sourcePoint" />
            <mxPoint x="440" y="580" as="targetPoint" />
          </mxGeometry>
        </mxCell>
        <mxCell id="_zywTkkiE6WR-aAjTpFu-22" value="Cocinero" style="shape=umlActor;verticalLabelPosition=bottom;verticalAlign=top;html=1;outlineConnect=0;fontSize=17;" parent="1" vertex="1">
          <mxGeometry x="750" y="675" width="30" height="60" as="geometry" />
        </mxCell>
        <mxCell id="_zywTkkiE6WR-aAjTpFu-23" value="" style="endArrow=none;html=1;rounded=0;fontSize=17;exitX=0.5;exitY=0.5;exitDx=0;exitDy=0;exitPerimeter=0;entryX=1;entryY=0.5;entryDx=0;entryDy=0;" parent="1" source="_zywTkkiE6WR-aAjTpFu-22" target="_zywTkkiE6WR-aAjTpFu-17" edge="1">
          <mxGeometry width="50" height="50" relative="1" as="geometry">
            <mxPoint x="-190" y="830" as="sourcePoint" />
            <mxPoint x="-140" y="780" as="targetPoint" />
          </mxGeometry>
        </mxCell>
        <mxCell id="_zywTkkiE6WR-aAjTpFu-24" value="Nivel 1&lt;br&gt;Gestionar inventarios" style="text;html=1;align=center;verticalAlign=middle;resizable=0;points=[];autosize=1;strokeColor=none;fillColor=none;fontSize=17;" parent="1" vertex="1">
          <mxGeometry x="360" y="820" width="180" height="50" as="geometry" />
        </mxCell>
        <mxCell id="_zywTkkiE6WR-aAjTpFu-25" style="edgeStyle=orthogonalEdgeStyle;rounded=0;orthogonalLoop=1;jettySize=auto;html=1;exitX=0.5;exitY=1;exitDx=0;exitDy=0;entryX=0.5;entryY=0;entryDx=0;entryDy=0;" parent="1" source="_zywTkkiE6WR-aAjTpFu-26" target="_zywTkkiE6WR-aAjTpFu-28" edge="1">
          <mxGeometry relative="1" as="geometry" />
        </mxCell>
        <mxCell id="_zywTkkiE6WR-aAjTpFu-26" value="Agregar items al inventario" style="ellipse;whiteSpace=wrap;html=1;" parent="1" vertex="1">
          <mxGeometry x="390" y="1010" width="120" height="50" as="geometry" />
        </mxCell>
        <mxCell id="_zywTkkiE6WR-aAjTpFu-27" value="Eliminar items del inventario" style="ellipse;whiteSpace=wrap;html=1;" parent="1" vertex="1">
          <mxGeometry x="390" y="950" width="120" height="50" as="geometry" />
        </mxCell>
        <mxCell id="_zywTkkiE6WR-aAjTpFu-28" value="Cambiar el estado de items en el inventario" style="ellipse;whiteSpace=wrap;html=1;" parent="1" vertex="1">
          <mxGeometry x="390" y="1080" width="120" height="50" as="geometry" />
        </mxCell>
        <mxCell id="_zywTkkiE6WR-aAjTpFu-29" value="Cocinero" style="shape=umlActor;verticalLabelPosition=bottom;verticalAlign=top;html=1;outlineConnect=0;fontSize=17;" parent="1" vertex="1">
          <mxGeometry x="630" y="1075" width="30" height="60" as="geometry" />
        </mxCell>
        <mxCell id="_zywTkkiE6WR-aAjTpFu-30" value="" style="endArrow=none;html=1;rounded=0;fontSize=17;entryX=0.5;entryY=0.5;entryDx=0;entryDy=0;entryPerimeter=0;exitX=1;exitY=0.5;exitDx=0;exitDy=0;" parent="1" source="_zywTkkiE6WR-aAjTpFu-28" target="_zywTkkiE6WR-aAjTpFu-29" edge="1">
          <mxGeometry width="50" height="50" relative="1" as="geometry">
            <mxPoint x="390" y="1110" as="sourcePoint" />
            <mxPoint x="440" y="1060" as="targetPoint" />
          </mxGeometry>
        </mxCell>
        <mxCell id="_zywTkkiE6WR-aAjTpFu-31" value="Administrador" style="shape=umlActor;verticalLabelPosition=bottom;verticalAlign=top;html=1;outlineConnect=0;" parent="1" vertex="1">
          <mxGeometry x="150" y="970" width="30" height="60" as="geometry" />
        </mxCell>
        <mxCell id="_zywTkkiE6WR-aAjTpFu-32" value="" style="endArrow=none;html=1;rounded=0;fontSize=17;exitX=0.5;exitY=0.5;exitDx=0;exitDy=0;exitPerimeter=0;entryX=0;entryY=0.5;entryDx=0;entryDy=0;" parent="1" source="_zywTkkiE6WR-aAjTpFu-31" target="_zywTkkiE6WR-aAjTpFu-26" edge="1">
          <mxGeometry width="50" height="50" relative="1" as="geometry">
            <mxPoint x="390" y="990" as="sourcePoint" />
            <mxPoint x="440" y="940" as="targetPoint" />
          </mxGeometry>
        </mxCell>
        <mxCell id="_zywTkkiE6WR-aAjTpFu-33" value="" style="endArrow=none;html=1;rounded=0;fontSize=17;exitX=0.5;exitY=0.5;exitDx=0;exitDy=0;exitPerimeter=0;entryX=0;entryY=0.5;entryDx=0;entryDy=0;" parent="1" source="_zywTkkiE6WR-aAjTpFu-31" target="_zywTkkiE6WR-aAjTpFu-27" edge="1">
          <mxGeometry width="50" height="50" relative="1" as="geometry">
            <mxPoint x="390" y="990" as="sourcePoint" />
            <mxPoint x="440" y="940" as="targetPoint" />
          </mxGeometry>
        </mxCell>
        <mxCell id="_zywTkkiE6WR-aAjTpFu-34" value="" style="endArrow=none;html=1;rounded=0;fontSize=17;entryX=0.5;entryY=0.5;entryDx=0;entryDy=0;entryPerimeter=0;exitX=0;exitY=0.5;exitDx=0;exitDy=0;" parent="1" source="_zywTkkiE6WR-aAjTpFu-9" target="_zywTkkiE6WR-aAjTpFu-7" edge="1">
          <mxGeometry width="50" height="50" relative="1" as="geometry">
            <mxPoint x="710" y="380" as="sourcePoint" />
            <mxPoint x="760" y="330" as="targetPoint" />
          </mxGeometry>
        </mxCell>
        <mxCell id="_zywTkkiE6WR-aAjTpFu-35" value="" style="shape=umlActor;verticalLabelPosition=bottom;verticalAlign=top;html=1;outlineConnect=0;fontSize=17;" parent="1" vertex="1">
          <mxGeometry x="650" y="135" width="30" height="60" as="geometry" />
        </mxCell>
        <mxCell id="_zywTkkiE6WR-aAjTpFu-36" value="" style="shape=umlActor;verticalLabelPosition=bottom;verticalAlign=top;html=1;outlineConnect=0;fontSize=17;rotation=55;" parent="1" vertex="1">
          <mxGeometry x="660" y="135" width="30" height="60" as="geometry" />
        </mxCell>
        <mxCell id="_zywTkkiE6WR-aAjTpFu-37" value="" style="endArrow=none;html=1;rounded=0;fontSize=17;" parent="1" target="_zywTkkiE6WR-aAjTpFu-36" edge="1">
          <mxGeometry width="50" height="50" relative="1" as="geometry">
            <mxPoint x="665" y="175" as="sourcePoint" />
            <mxPoint x="715" y="125" as="targetPoint" />
          </mxGeometry>
        </mxCell>
        <mxCell id="_zywTkkiE6WR-aAjTpFu-38" value="" style="endArrow=classic;html=1;rounded=0;entryX=1;entryY=0.5;entryDx=0;entryDy=0;exitX=0;exitY=0.5;exitDx=0;exitDy=0;" parent="1" source="_zywTkkiE6WR-aAjTpFu-17" target="_zywTkkiE6WR-aAjTpFu-14" edge="1">
          <mxGeometry width="50" height="50" relative="1" as="geometry">
            <mxPoint x="430" y="810" as="sourcePoint" />
            <mxPoint x="480" y="760" as="targetPoint" />
          </mxGeometry>
        </mxCell>
        <mxCell id="yURPwCpg9gICH0MFoex7-2" value="Administrador" style="shape=umlActor;verticalLabelPosition=bottom;verticalAlign=top;html=1;outlineConnect=0;fontSize=17;" parent="1" vertex="1">
          <mxGeometry x="990" y="145" width="30" height="60" as="geometry" />
        </mxCell>
        <mxCell id="yURPwCpg9gICH0MFoex7-3" value="Cliente" style="shape=umlActor;verticalLabelPosition=bottom;verticalAlign=top;html=1;outlineConnect=0;" parent="1" vertex="1">
          <mxGeometry x="1250" y="145" width="30" height="60" as="geometry" />
        </mxCell>
        <mxCell id="yURPwCpg9gICH0MFoex7-6" value="" style="endArrow=classic;html=1;rounded=0;exitX=0.5;exitY=0.5;exitDx=0;exitDy=0;exitPerimeter=0;entryX=0.5;entryY=0.5;entryDx=0;entryDy=0;entryPerimeter=0;" parent="1" source="yURPwCpg9gICH0MFoex7-3" target="yURPwCpg9gICH0MFoex7-2" edge="1">
          <mxGeometry width="50" height="50" relative="1" as="geometry">
            <mxPoint x="1220" y="160" as="sourcePoint" />
            <mxPoint x="1270" y="110" as="targetPoint" />
          </mxGeometry>
        </mxCell>
        <mxCell id="yURPwCpg9gICH0MFoex7-7" value="" style="endArrow=classic;html=1;rounded=0;" parent="1" edge="1">
          <mxGeometry width="50" height="50" relative="1" as="geometry">
            <mxPoint x="1175" y="164" as="sourcePoint" />
            <mxPoint x="1125" y="164" as="targetPoint" />
          </mxGeometry>
        </mxCell>
        <mxCell id="yURPwCpg9gICH0MFoex7-9" value="Ordenar" style="text;html=1;strokeColor=none;fillColor=none;align=center;verticalAlign=middle;whiteSpace=wrap;rounded=0;" parent="1" vertex="1">
          <mxGeometry x="1120" y="135" width="60" height="30" as="geometry" />
        </mxCell>
        <mxCell id="yURPwCpg9gICH0MFoex7-10" value=":Sistema" style="shape=process;whiteSpace=wrap;html=1;backgroundOutline=1;" parent="1" vertex="1">
          <mxGeometry x="1200" y="280" width="120" height="60" as="geometry" />
        </mxCell>
        <mxCell id="yURPwCpg9gICH0MFoex7-11" value="" style="endArrow=classic;html=1;rounded=0;exitX=0.5;exitY=0.5;exitDx=0;exitDy=0;exitPerimeter=0;entryX=0;entryY=0.5;entryDx=0;entryDy=0;" parent="1" source="yURPwCpg9gICH0MFoex7-2" target="yURPwCpg9gICH0MFoex7-10" edge="1">
          <mxGeometry width="50" height="50" relative="1" as="geometry">
            <mxPoint x="1130" y="255" as="sourcePoint" />
            <mxPoint x="1180" y="205" as="targetPoint" />
          </mxGeometry>
        </mxCell>
        <mxCell id="yURPwCpg9gICH0MFoex7-12" value="Generar una orden" style="text;html=1;strokeColor=none;fillColor=none;align=center;verticalAlign=middle;whiteSpace=wrap;rounded=0;rotation=0;" parent="1" vertex="1">
          <mxGeometry x="1130" y="210" width="60" height="30" as="geometry" />
        </mxCell>
        <mxCell id="yURPwCpg9gICH0MFoex7-13" value="" style="endArrow=classic;html=1;rounded=0;" parent="1" edge="1">
          <mxGeometry width="50" height="50" relative="1" as="geometry">
            <mxPoint x="1110" y="230" as="sourcePoint" />
            <mxPoint x="1170" y="270" as="targetPoint" />
          </mxGeometry>
        </mxCell>
        <mxCell id="yURPwCpg9gICH0MFoex7-16" value="Cocinero" style="shape=umlActor;verticalLabelPosition=bottom;verticalAlign=top;html=1;outlineConnect=0;fontSize=17;" parent="1" vertex="1">
          <mxGeometry x="1500" y="280" width="30" height="60" as="geometry" />
        </mxCell>
        <mxCell id="yURPwCpg9gICH0MFoex7-17" value="Sistema" style="text;html=1;strokeColor=none;fillColor=none;align=center;verticalAlign=middle;whiteSpace=wrap;rounded=0;" parent="1" vertex="1">
          <mxGeometry x="415" y="260" width="60" height="30" as="geometry" />
        </mxCell>
        <mxCell id="yURPwCpg9gICH0MFoex7-18" value="" style="endArrow=classic;html=1;rounded=0;entryX=1;entryY=0.5;entryDx=0;entryDy=0;exitX=0.5;exitY=0.5;exitDx=0;exitDy=0;exitPerimeter=0;" parent="1" source="yURPwCpg9gICH0MFoex7-16" target="yURPwCpg9gICH0MFoex7-10" edge="1">
          <mxGeometry width="50" height="50" relative="1" as="geometry">
            <mxPoint x="1450" y="330" as="sourcePoint" />
            <mxPoint x="1500" y="280" as="targetPoint" />
          </mxGeometry>
        </mxCell>
        <mxCell id="yURPwCpg9gICH0MFoex7-19" value="Revisar la lista de ordenes" style="text;html=1;strokeColor=none;fillColor=none;align=center;verticalAlign=middle;whiteSpace=wrap;rounded=0;" parent="1" vertex="1">
          <mxGeometry x="1380" y="250" width="70" height="40" as="geometry" />
        </mxCell>
        <mxCell id="yURPwCpg9gICH0MFoex7-20" value="" style="endArrow=classic;html=1;rounded=0;" parent="1" edge="1">
          <mxGeometry width="50" height="50" relative="1" as="geometry">
            <mxPoint x="1440" y="300" as="sourcePoint" />
            <mxPoint x="1390" y="300" as="targetPoint" />
          </mxGeometry>
        </mxCell>
        <mxCell id="yURPwCpg9gICH0MFoex7-22" value="" style="endArrow=classic;html=1;rounded=0;startArrow=none;" parent="1" edge="1">
          <mxGeometry width="50" height="50" relative="1" as="geometry">
            <mxPoint x="1390" y="350.5" as="sourcePoint" />
            <mxPoint x="1440" y="350" as="targetPoint" />
          </mxGeometry>
        </mxCell>
        <mxCell id="yURPwCpg9gICH0MFoex7-23" value="Datos de la orden" style="text;html=1;strokeColor=none;fillColor=none;align=center;verticalAlign=middle;whiteSpace=wrap;rounded=0;" parent="1" vertex="1">
          <mxGeometry x="1380" y="320" width="60" height="30" as="geometry" />
        </mxCell>
        <mxCell id="yURPwCpg9gICH0MFoex7-25" value="Eliminar productos del menu" style="ellipse;whiteSpace=wrap;html=1;" parent="1" vertex="1">
          <mxGeometry x="390" y="890" width="120" height="50" as="geometry" />
        </mxCell>
        <mxCell id="yURPwCpg9gICH0MFoex7-26" value="" style="endArrow=none;html=1;rounded=0;fontSize=17;exitX=0.5;exitY=0.5;exitDx=0;exitDy=0;exitPerimeter=0;entryX=0;entryY=0.5;entryDx=0;entryDy=0;" parent="1" source="_zywTkkiE6WR-aAjTpFu-31" target="yURPwCpg9gICH0MFoex7-25" edge="1">
          <mxGeometry width="50" height="50" relative="1" as="geometry">
            <mxPoint x="180" y="965" as="sourcePoint" />
            <mxPoint x="405" y="940" as="targetPoint" />
          </mxGeometry>
        </mxCell>
        <mxCell id="yURPwCpg9gICH0MFoex7-27" value=":Items" style="shape=process;whiteSpace=wrap;html=1;backgroundOutline=1;" parent="1" vertex="1">
          <mxGeometry x="1200" y="430" width="120" height="40" as="geometry" />
        </mxCell>
        <mxCell id="yURPwCpg9gICH0MFoex7-28" value="" style="endArrow=classic;html=1;rounded=0;entryX=0.25;entryY=0;entryDx=0;entryDy=0;exitX=0.25;exitY=1;exitDx=0;exitDy=0;" parent="1" source="yURPwCpg9gICH0MFoex7-10" target="yURPwCpg9gICH0MFoex7-27" edge="1">
          <mxGeometry width="50" height="50" relative="1" as="geometry">
            <mxPoint x="1230" y="350" as="sourcePoint" />
            <mxPoint x="1170" y="360" as="targetPoint" />
          </mxGeometry>
        </mxCell>
        <mxCell id="yURPwCpg9gICH0MFoex7-29" value="" style="endArrow=classic;html=1;rounded=0;exitX=0.675;exitY=-0.025;exitDx=0;exitDy=0;exitPerimeter=0;entryX=0.692;entryY=1.017;entryDx=0;entryDy=0;entryPerimeter=0;" parent="1" source="yURPwCpg9gICH0MFoex7-27" target="yURPwCpg9gICH0MFoex7-10" edge="1">
          <mxGeometry width="50" height="50" relative="1" as="geometry">
            <mxPoint x="1290" y="410" as="sourcePoint" />
            <mxPoint x="1290" y="350" as="targetPoint" />
          </mxGeometry>
        </mxCell>
        <mxCell id="yURPwCpg9gICH0MFoex7-30" value="Chechear disponibilidad de items" style="text;html=1;strokeColor=none;fillColor=none;align=center;verticalAlign=middle;whiteSpace=wrap;rounded=0;rotation=0;" parent="1" vertex="1">
          <mxGeometry x="1140" y="360" width="90" height="40" as="geometry" />
        </mxCell>
        <mxCell id="yURPwCpg9gICH0MFoex7-31" value="Enviar cantidad de items ok" style="text;html=1;strokeColor=none;fillColor=none;align=center;verticalAlign=middle;whiteSpace=wrap;rounded=0;rotation=0;" parent="1" vertex="1">
          <mxGeometry x="1280" y="370" width="90" height="40" as="geometry" />
        </mxCell>
        <mxCell id="yURPwCpg9gICH0MFoex7-37" value="Administrador" style="text;html=1;strokeColor=none;fillColor=none;align=center;verticalAlign=middle;whiteSpace=wrap;rounded=0;" parent="1" vertex="1">
          <mxGeometry x="1070" y="610" width="60" height="30" as="geometry" />
        </mxCell>
        <mxCell id="yURPwCpg9gICH0MFoex7-38" value="Sistema" style="text;html=1;strokeColor=none;fillColor=none;align=center;verticalAlign=middle;whiteSpace=wrap;rounded=0;" parent="1" vertex="1">
          <mxGeometry x="1205" y="610" width="60" height="30" as="geometry" />
        </mxCell>
        <mxCell id="yURPwCpg9gICH0MFoex7-39" value="Cocinero" style="text;html=1;strokeColor=none;fillColor=none;align=center;verticalAlign=middle;whiteSpace=wrap;rounded=0;" parent="1" vertex="1">
          <mxGeometry x="1345" y="610" width="60" height="30" as="geometry" />
        </mxCell>
        <mxCell id="yURPwCpg9gICH0MFoex7-41" value="" style="ellipse;whiteSpace=wrap;html=1;aspect=fixed;strokeColor=#000000;fillColor=#000000;" parent="1" vertex="1">
          <mxGeometry x="967.5" y="647.5" width="25" height="25" as="geometry" />
        </mxCell>
        <mxCell id="yURPwCpg9gICH0MFoex7-43" value="Cliente" style="text;html=1;strokeColor=none;fillColor=none;align=center;verticalAlign=middle;whiteSpace=wrap;rounded=0;" parent="1" vertex="1">
          <mxGeometry x="950" y="610" width="60" height="30" as="geometry" />
        </mxCell>
        <mxCell id="yURPwCpg9gICH0MFoex7-45" value="Realizar una orden" style="ellipse;whiteSpace=wrap;html=1;strokeColor=#000000;fillColor=#FFFFFF;" parent="1" vertex="1">
          <mxGeometry x="932.5" y="690" width="95" height="30" as="geometry" />
        </mxCell>
        <mxCell id="yURPwCpg9gICH0MFoex7-46" value="" style="endArrow=classic;html=1;rounded=0;exitX=0.5;exitY=1;exitDx=0;exitDy=0;entryX=0.5;entryY=0;entryDx=0;entryDy=0;" parent="1" source="yURPwCpg9gICH0MFoex7-41" target="yURPwCpg9gICH0MFoex7-45" edge="1">
          <mxGeometry width="50" height="50" relative="1" as="geometry">
            <mxPoint x="1170" y="770" as="sourcePoint" />
            <mxPoint x="1220" y="720" as="targetPoint" />
          </mxGeometry>
        </mxCell>
        <mxCell id="yURPwCpg9gICH0MFoex7-47" value="Procesar orden" style="ellipse;whiteSpace=wrap;html=1;strokeColor=#000000;fillColor=#FFFFFF;" parent="1" vertex="1">
          <mxGeometry x="1050" y="730" width="100" height="30" as="geometry" />
        </mxCell>
        <mxCell id="yURPwCpg9gICH0MFoex7-49" value="Diagrama de Actividades" style="text;html=1;strokeColor=none;fillColor=none;align=center;verticalAlign=middle;whiteSpace=wrap;rounded=0;fontSize=17;fontStyle=1" parent="1" vertex="1">
          <mxGeometry x="1087.5" y="545" width="145" height="40" as="geometry" />
        </mxCell>
        <mxCell id="yURPwCpg9gICH0MFoex7-50" value="Diagrama de ColaboraciÃ³n" style="text;html=1;strokeColor=none;fillColor=none;align=center;verticalAlign=middle;whiteSpace=wrap;rounded=0;fontSize=17;fontStyle=1" parent="1" vertex="1">
          <mxGeometry x="1200" y="80" width="145" height="40" as="geometry" />
        </mxCell>
        <mxCell id="yURPwCpg9gICH0MFoex7-51" value="Manejar peticiÃ³n" style="ellipse;whiteSpace=wrap;html=1;strokeColor=#000000;fillColor=#FFFFFF;" parent="1" vertex="1">
          <mxGeometry x="1185" y="730" width="100" height="30" as="geometry" />
        </mxCell>
        <mxCell id="yURPwCpg9gICH0MFoex7-52" value="Crear Orden" style="ellipse;whiteSpace=wrap;html=1;strokeColor=#000000;fillColor=#FFFFFF;" parent="1" vertex="1">
          <mxGeometry x="1185" y="880" width="100" height="30" as="geometry" />
        </mxCell>
        <mxCell id="yURPwCpg9gICH0MFoex7-53" value="" style="endArrow=classic;html=1;rounded=0;fontSize=17;exitX=1;exitY=0.5;exitDx=0;exitDy=0;entryX=0.5;entryY=0;entryDx=0;entryDy=0;" parent="1" source="yURPwCpg9gICH0MFoex7-45" target="yURPwCpg9gICH0MFoex7-47" edge="1">
          <mxGeometry width="50" height="50" relative="1" as="geometry">
            <mxPoint x="1170" y="740" as="sourcePoint" />
            <mxPoint x="1220" y="690" as="targetPoint" />
          </mxGeometry>
        </mxCell>
        <mxCell id="yURPwCpg9gICH0MFoex7-54" value="" style="endArrow=classic;html=1;rounded=0;fontSize=17;exitX=1;exitY=0.5;exitDx=0;exitDy=0;entryX=0;entryY=0.5;entryDx=0;entryDy=0;" parent="1" source="yURPwCpg9gICH0MFoex7-47" target="yURPwCpg9gICH0MFoex7-51" edge="1">
          <mxGeometry width="50" height="50" relative="1" as="geometry">
            <mxPoint x="1183.75" y="750" as="sourcePoint" />
            <mxPoint x="1256.25" y="775" as="targetPoint" />
          </mxGeometry>
        </mxCell>
        <mxCell id="gCqEEP28M4WdG7ceTI0u-1" value="Cliente" style="shape=umlActor;verticalLabelPosition=bottom;verticalAlign=top;html=1;outlineConnect=0;" vertex="1" parent="1">
          <mxGeometry x="170" y="120" width="30" height="60" as="geometry" />
        </mxCell>
        <mxCell id="gCqEEP28M4WdG7ceTI0u-4" value="" style="endArrow=none;html=1;rounded=0;exitX=0.5;exitY=0.5;exitDx=0;exitDy=0;exitPerimeter=0;entryX=0.5;entryY=0.5;entryDx=0;entryDy=0;entryPerimeter=0;" edge="1" parent="1" source="_zywTkkiE6WR-aAjTpFu-7" target="gCqEEP28M4WdG7ceTI0u-1">
          <mxGeometry width="50" height="50" relative="1" as="geometry">
            <mxPoint x="120" y="280" as="sourcePoint" />
            <mxPoint x="170" y="230" as="targetPoint" />
          </mxGeometry>
        </mxCell>
        <mxCell id="gCqEEP28M4WdG7ceTI0u-7" value="Revisar orden" style="ellipse;whiteSpace=wrap;html=1;strokeColor=#000000;fillColor=#FFFFFF;" vertex="1" parent="1">
          <mxGeometry x="1325" y="880" width="100" height="30" as="geometry" />
        </mxCell>
        <mxCell id="gCqEEP28M4WdG7ceTI0u-8" value="" style="endArrow=classic;html=1;rounded=0;fontSize=17;exitX=1;exitY=0.5;exitDx=0;exitDy=0;entryX=0;entryY=0.5;entryDx=0;entryDy=0;" edge="1" parent="1" source="yURPwCpg9gICH0MFoex7-52" target="gCqEEP28M4WdG7ceTI0u-7">
          <mxGeometry width="50" height="50" relative="1" as="geometry">
            <mxPoint x="1230" y="780" as="sourcePoint" />
            <mxPoint x="1230" y="800" as="targetPoint" />
          </mxGeometry>
        </mxCell>
        <mxCell id="gCqEEP28M4WdG7ceTI0u-10" value="" style="endArrow=classic;html=1;rounded=0;exitX=0.5;exitY=1;exitDx=0;exitDy=0;entryX=0.5;entryY=0;entryDx=0;entryDy=0;" edge="1" parent="1" source="gCqEEP28M4WdG7ceTI0u-7" target="gCqEEP28M4WdG7ceTI0u-12">
          <mxGeometry width="50" height="50" relative="1" as="geometry">
            <mxPoint x="1300" y="790" as="sourcePoint" />
            <mxPoint x="1340" y="870" as="targetPoint" />
          </mxGeometry>
        </mxCell>
        <mxCell id="gCqEEP28M4WdG7ceTI0u-11" value="" style="endArrow=classic;html=1;rounded=0;exitX=0.5;exitY=1;exitDx=0;exitDy=0;" edge="1" parent="1" source="yURPwCpg9gICH0MFoex7-45">
          <mxGeometry width="50" height="50" relative="1" as="geometry">
            <mxPoint x="1300" y="790" as="sourcePoint" />
            <mxPoint x="980" y="1090" as="targetPoint" />
          </mxGeometry>
        </mxCell>
        <mxCell id="gCqEEP28M4WdG7ceTI0u-12" value="Realizar orden" style="ellipse;whiteSpace=wrap;html=1;strokeColor=#000000;fillColor=#FFFFFF;" vertex="1" parent="1">
          <mxGeometry x="1325" y="930" width="100" height="30" as="geometry" />
        </mxCell>
        <mxCell id="gCqEEP28M4WdG7ceTI0u-13" value="Marcar la orden como lista" style="ellipse;whiteSpace=wrap;html=1;strokeColor=#000000;fillColor=#FFFFFF;" vertex="1" parent="1">
          <mxGeometry x="1325" y="980" width="100" height="40" as="geometry" />
        </mxCell>
        <mxCell id="gCqEEP28M4WdG7ceTI0u-14" value="" style="endArrow=classic;html=1;rounded=0;entryX=0.5;entryY=0;entryDx=0;entryDy=0;exitX=0.5;exitY=1;exitDx=0;exitDy=0;" edge="1" parent="1" source="gCqEEP28M4WdG7ceTI0u-12" target="gCqEEP28M4WdG7ceTI0u-13">
          <mxGeometry width="50" height="50" relative="1" as="geometry">
            <mxPoint x="1350" y="860" as="sourcePoint" />
            <mxPoint x="1350" y="880" as="targetPoint" />
          </mxGeometry>
        </mxCell>
        <mxCell id="gCqEEP28M4WdG7ceTI0u-19" value="" style="endArrow=none;html=1;rounded=0;" edge="1" parent="1">
          <mxGeometry width="50" height="50" relative="1" as="geometry">
            <mxPoint x="915" y="1090" as="sourcePoint" />
            <mxPoint x="1405" y="1090" as="targetPoint" />
          </mxGeometry>
        </mxCell>
        <mxCell id="gCqEEP28M4WdG7ceTI0u-20" value="" style="endArrow=classic;html=1;rounded=0;exitX=0.5;exitY=1;exitDx=0;exitDy=0;" edge="1" parent="1" source="gCqEEP28M4WdG7ceTI0u-13">
          <mxGeometry width="50" height="50" relative="1" as="geometry">
            <mxPoint x="1350" y="910" as="sourcePoint" />
            <mxPoint x="1375" y="1090" as="targetPoint" />
          </mxGeometry>
        </mxCell>
        <mxCell id="gCqEEP28M4WdG7ceTI0u-21" value="Recibir el pedido" style="ellipse;whiteSpace=wrap;html=1;strokeColor=#000000;fillColor=#FFFFFF;" vertex="1" parent="1">
          <mxGeometry x="930" y="1150" width="100" height="40" as="geometry" />
        </mxCell>
        <mxCell id="gCqEEP28M4WdG7ceTI0u-24" value="" style="endArrow=classic;html=1;rounded=0;" edge="1" parent="1">
          <mxGeometry width="50" height="50" relative="1" as="geometry">
            <mxPoint x="1100" y="1090" as="sourcePoint" />
            <mxPoint x="1100" y="1120" as="targetPoint" />
          </mxGeometry>
        </mxCell>
        <mxCell id="gCqEEP28M4WdG7ceTI0u-26" value="Marcar items consumidos" style="ellipse;whiteSpace=wrap;html=1;strokeColor=#000000;fillColor=#FFFFFF;" vertex="1" parent="1">
          <mxGeometry x="1170" y="1150" width="100" height="40" as="geometry" />
        </mxCell>
        <mxCell id="gCqEEP28M4WdG7ceTI0u-27" value="Facturar al cliente" style="ellipse;whiteSpace=wrap;html=1;strokeColor=#000000;fillColor=#FFFFFF;" vertex="1" parent="1">
          <mxGeometry x="1050" y="1150" width="100" height="40" as="geometry" />
        </mxCell>
        <mxCell id="gCqEEP28M4WdG7ceTI0u-28" value="" style="endArrow=none;html=1;rounded=0;" edge="1" parent="1">
          <mxGeometry width="50" height="50" relative="1" as="geometry">
            <mxPoint x="915" y="1120" as="sourcePoint" />
            <mxPoint x="1405" y="1120" as="targetPoint" />
          </mxGeometry>
        </mxCell>
        <mxCell id="gCqEEP28M4WdG7ceTI0u-29" value="" style="endArrow=classic;html=1;rounded=0;entryX=0.5;entryY=0;entryDx=0;entryDy=0;" edge="1" parent="1" target="gCqEEP28M4WdG7ceTI0u-21">
          <mxGeometry width="50" height="50" relative="1" as="geometry">
            <mxPoint x="980" y="1120" as="sourcePoint" />
            <mxPoint x="1110" y="1010" as="targetPoint" />
          </mxGeometry>
        </mxCell>
        <mxCell id="gCqEEP28M4WdG7ceTI0u-30" value="" style="endArrow=classic;html=1;rounded=0;entryX=0.5;entryY=0;entryDx=0;entryDy=0;" edge="1" parent="1" target="gCqEEP28M4WdG7ceTI0u-27">
          <mxGeometry width="50" height="50" relative="1" as="geometry">
            <mxPoint x="1100" y="1120" as="sourcePoint" />
            <mxPoint x="1120" y="1020" as="targetPoint" />
          </mxGeometry>
        </mxCell>
        <mxCell id="gCqEEP28M4WdG7ceTI0u-31" value="" style="endArrow=classic;html=1;rounded=0;entryX=0.5;entryY=0;entryDx=0;entryDy=0;" edge="1" parent="1" target="gCqEEP28M4WdG7ceTI0u-26">
          <mxGeometry width="50" height="50" relative="1" as="geometry">
            <mxPoint x="1220" y="1120" as="sourcePoint" />
            <mxPoint x="1130" y="1030" as="targetPoint" />
          </mxGeometry>
        </mxCell>
        <mxCell id="gCqEEP28M4WdG7ceTI0u-32" value="" style="endArrow=none;html=1;rounded=0;" edge="1" parent="1">
          <mxGeometry width="50" height="50" relative="1" as="geometry">
            <mxPoint x="940" y="1220" as="sourcePoint" />
            <mxPoint x="1150" y="1221" as="targetPoint" />
          </mxGeometry>
        </mxCell>
        <mxCell id="gCqEEP28M4WdG7ceTI0u-33" value="" style="endArrow=classic;html=1;rounded=0;exitX=0.5;exitY=1;exitDx=0;exitDy=0;" edge="1" parent="1" source="gCqEEP28M4WdG7ceTI0u-21">
          <mxGeometry width="50" height="50" relative="1" as="geometry">
            <mxPoint x="1030" y="1090" as="sourcePoint" />
            <mxPoint x="980" y="1220" as="targetPoint" />
          </mxGeometry>
        </mxCell>
        <mxCell id="gCqEEP28M4WdG7ceTI0u-34" value="" style="endArrow=classic;html=1;rounded=0;exitX=0.5;exitY=1;exitDx=0;exitDy=0;" edge="1" parent="1" source="gCqEEP28M4WdG7ceTI0u-27">
          <mxGeometry width="50" height="50" relative="1" as="geometry">
            <mxPoint x="990" y="1080" as="sourcePoint" />
            <mxPoint x="1100" y="1220" as="targetPoint" />
          </mxGeometry>
        </mxCell>
        <mxCell id="gCqEEP28M4WdG7ceTI0u-36" value="Pagar pedido" style="ellipse;whiteSpace=wrap;html=1;strokeColor=#000000;fillColor=#FFFFFF;" vertex="1" parent="1">
          <mxGeometry x="932.5" y="1250" width="100" height="40" as="geometry" />
        </mxCell>
        <mxCell id="gCqEEP28M4WdG7ceTI0u-37" value="" style="endArrow=classic;html=1;rounded=0;entryX=0.5;entryY=0;entryDx=0;entryDy=0;" edge="1" parent="1" target="gCqEEP28M4WdG7ceTI0u-36">
          <mxGeometry width="50" height="50" relative="1" as="geometry">
            <mxPoint x="983" y="1220" as="sourcePoint" />
            <mxPoint x="990" y="1110" as="targetPoint" />
          </mxGeometry>
        </mxCell>
        <mxCell id="gCqEEP28M4WdG7ceTI0u-38" value="Procesar pago" style="ellipse;whiteSpace=wrap;html=1;strokeColor=#000000;fillColor=#FFFFFF;" vertex="1" parent="1">
          <mxGeometry x="1050" y="1300" width="100" height="40" as="geometry" />
        </mxCell>
        <mxCell id="gCqEEP28M4WdG7ceTI0u-40" value="" style="endArrow=classic;html=1;rounded=0;exitX=1;exitY=0.5;exitDx=0;exitDy=0;entryX=0.5;entryY=0;entryDx=0;entryDy=0;" edge="1" parent="1" source="gCqEEP28M4WdG7ceTI0u-36" target="gCqEEP28M4WdG7ceTI0u-38">
          <mxGeometry width="50" height="50" relative="1" as="geometry">
            <mxPoint x="1300" y="1020" as="sourcePoint" />
            <mxPoint x="1350" y="970" as="targetPoint" />
          </mxGeometry>
        </mxCell>
        <mxCell id="gCqEEP28M4WdG7ceTI0u-41" value="Marcar Orden como terminada" style="ellipse;whiteSpace=wrap;html=1;strokeColor=#000000;fillColor=#FFFFFF;" vertex="1" parent="1">
          <mxGeometry x="1160" y="1350" width="100" height="40" as="geometry" />
        </mxCell>
        <mxCell id="gCqEEP28M4WdG7ceTI0u-42" value="" style="endArrow=classic;html=1;rounded=0;exitX=1;exitY=0.5;exitDx=0;exitDy=0;entryX=0.5;entryY=0;entryDx=0;entryDy=0;" edge="1" parent="1" source="gCqEEP28M4WdG7ceTI0u-38" target="gCqEEP28M4WdG7ceTI0u-41">
          <mxGeometry width="50" height="50" relative="1" as="geometry">
            <mxPoint x="1040" y="1160" as="sourcePoint" />
            <mxPoint x="1110" y="1190" as="targetPoint" />
          </mxGeometry>
        </mxCell>
        <mxCell id="gCqEEP28M4WdG7ceTI0u-92" value="Todos los productos estÃ¡n disponibles" style="rhombus;whiteSpace=wrap;html=1;" vertex="1" parent="1">
          <mxGeometry x="1170" y="790" width="132.5" height="70" as="geometry" />
        </mxCell>
        <mxCell id="gCqEEP28M4WdG7ceTI0u-93" value="" style="ellipse;whiteSpace=wrap;html=1;aspect=fixed;strokeColor=#000000;fillColor=#000000;" vertex="1" parent="1">
          <mxGeometry x="1197.5" y="1450" width="25" height="25" as="geometry" />
        </mxCell>
        <mxCell id="gCqEEP28M4WdG7ceTI0u-94" value="" style="endArrow=classic;html=1;rounded=0;exitX=0.5;exitY=1;exitDx=0;exitDy=0;entryX=0.5;entryY=0;entryDx=0;entryDy=0;" edge="1" parent="1" source="gCqEEP28M4WdG7ceTI0u-41" target="gCqEEP28M4WdG7ceTI0u-93">
          <mxGeometry width="50" height="50" relative="1" as="geometry">
            <mxPoint x="1160" y="1330" as="sourcePoint" />
            <mxPoint x="1220" y="1360" as="targetPoint" />
          </mxGeometry>
        </mxCell>
        <mxCell id="gCqEEP28M4WdG7ceTI0u-95" value="" style="endArrow=classic;html=1;rounded=0;entryX=0.5;entryY=0;entryDx=0;entryDy=0;exitX=0.5;exitY=1;exitDx=0;exitDy=0;" edge="1" parent="1" source="yURPwCpg9gICH0MFoex7-51" target="gCqEEP28M4WdG7ceTI0u-92">
          <mxGeometry width="50" height="50" relative="1" as="geometry">
            <mxPoint x="1300" y="900" as="sourcePoint" />
            <mxPoint x="1350" y="850" as="targetPoint" />
          </mxGeometry>
        </mxCell>
        <mxCell id="gCqEEP28M4WdG7ceTI0u-96" value="" style="endArrow=classic;html=1;rounded=0;entryX=0.5;entryY=0;entryDx=0;entryDy=0;exitX=0.5;exitY=1;exitDx=0;exitDy=0;" edge="1" parent="1" source="gCqEEP28M4WdG7ceTI0u-92" target="yURPwCpg9gICH0MFoex7-52">
          <mxGeometry width="50" height="50" relative="1" as="geometry">
            <mxPoint x="1300" y="900" as="sourcePoint" />
            <mxPoint x="1350" y="850" as="targetPoint" />
          </mxGeometry>
        </mxCell>
        <mxCell id="gCqEEP28M4WdG7ceTI0u-97" value="SI" style="text;html=1;strokeColor=none;fillColor=none;align=center;verticalAlign=middle;whiteSpace=wrap;rounded=0;" vertex="1" parent="1">
          <mxGeometry x="1225" y="850" width="60" height="30" as="geometry" />
        </mxCell>
        <mxCell id="gCqEEP28M4WdG7ceTI0u-98" value="NO" style="text;html=1;strokeColor=none;fillColor=none;align=center;verticalAlign=middle;whiteSpace=wrap;rounded=0;" vertex="1" parent="1">
          <mxGeometry x="1140" y="790" width="60" height="30" as="geometry" />
        </mxCell>
        <mxCell id="gCqEEP28M4WdG7ceTI0u-99" value="" style="endArrow=classic;html=1;rounded=0;exitX=0;exitY=0.5;exitDx=0;exitDy=0;entryX=1;entryY=0.5;entryDx=0;entryDy=0;" edge="1" parent="1" source="gCqEEP28M4WdG7ceTI0u-92" target="gCqEEP28M4WdG7ceTI0u-100">
          <mxGeometry width="50" height="50" relative="1" as="geometry">
            <mxPoint x="1170" y="820" as="sourcePoint" />
            <mxPoint x="1150" y="820" as="targetPoint" />
          </mxGeometry>
        </mxCell>
        <mxCell id="gCqEEP28M4WdG7ceTI0u-100" value="Solicitar cambios en la orden" style="ellipse;whiteSpace=wrap;html=1;strokeColor=#000000;fillColor=#FFFFFF;" vertex="1" parent="1">
          <mxGeometry x="1045" y="800" width="105" height="50" as="geometry" />
        </mxCell>
        <mxCell id="gCqEEP28M4WdG7ceTI0u-103" value="" style="endArrow=classic;html=1;rounded=0;entryX=0.711;entryY=1;entryDx=0;entryDy=0;exitX=0;exitY=0.5;exitDx=0;exitDy=0;entryPerimeter=0;" edge="1" parent="1" source="gCqEEP28M4WdG7ceTI0u-100" target="yURPwCpg9gICH0MFoex7-45">
          <mxGeometry width="50" height="50" relative="1" as="geometry">
            <mxPoint x="1300" y="890" as="sourcePoint" />
            <mxPoint x="1350" y="840" as="targetPoint" />
          </mxGeometry>
        </mxCell>
      </root>
    </mxGraphModel>
  </diagram>
</mxfile>
